<?xml version="1.0" standalone="no"?>
<!DOCTYPE svg PUBLIC "-//W3C//DTD SVG 20010904//EN"
 "http://www.w3.org/TR/2001/REC-SVG-20010904/DTD/svg10.dtd">
<svg version="1.0" xmlns="http://www.w3.org/2000/svg"
 width="633.000000pt" height="633.000000pt" viewBox="0 0 633.000000 633.000000"
 preserveAspectRatio="xMidYMid meet">
<metadata>
Created by potrace 1.14, written by Peter Selinger 2001-2017
</metadata>
<g transform="translate(0.000000,633.000000) scale(0.100000,-0.100000)"
fill="#000000" stroke="none">
<path d="M2822 6216 c-5 -6 -21 -31 -34 -56 -14 -25 -64 -110 -110 -190 -145
-248 -509 -873 -530 -910 -11 -19 -35 -60 -53 -90 -18 -30 -98 -167 -178 -305
-80 -137 -154 -266 -165 -285 -12 -19 -42 -71 -67 -115 -25 -44 -50 -87 -55
-95 -5 -8 -33 -55 -61 -105 -28 -49 -60 -102 -70 -117 -11 -15 -19 -30 -19
-34 0 -4 -17 -34 -38 -68 -21 -34 -42 -68 -45 -76 -4 -8 -15 -28 -25 -45 -24
-38 -450 -770 -471 -808 -9 -16 -20 -36 -26 -45 -105 -176 -215 -373 -215
-385 0 -9 30 -67 66 -129 37 -62 75 -129 86 -148 11 -19 45 -78 76 -130 31
-52 66 -113 78 -135 l22 -40 2168 -2 2169 -3 100 182 c55 100 115 209 133 242
19 34 47 84 62 112 l29 50 -180 315 c-100 173 -192 332 -205 354 -13 22 -28
49 -34 60 -5 11 -22 41 -37 67 -120 204 -359 624 -361 635 -2 7 -8 13 -13 13
-5 0 -9 4 -9 9 0 6 -741 1304 -800 1401 -5 8 -109 189 -232 403 -123 213 -231
399 -240 415 -10 15 -22 37 -27 49 -10 21 -12 21 -345 21 -239 0 -338 -3 -344
-12z m493 -1923 c88 -152 172 -297 186 -322 51 -90 68 -119 259 -451 106 -184
206 -356 221 -383 16 -26 29 -50 29 -53 0 -3 9 -19 21 -35 11 -16 18 -32 16
-36 -4 -6 -1741 -10 -1791 -4 -5 1 -3 9 5 19 8 9 20 27 26 39 20 35 538 945
626 1098 44 77 97 169 117 205 20 36 49 88 65 115 41 72 49 85 55 85 3 0 78
-124 165 -277z"/>
<path d="M689 1529 c0 -11 0 -44 0 -74 0 -30 0 -67 0 -83 l1 -27 208 0 207 0
0 -445 0 -445 143 -3 142 -3 1 58 c0 32 0 232 0 445 0 287 3 387 12 390 7 3
101 4 210 3 l197 0 0 101 0 101 -560 0 c-540 0 -560 0 -561 -18z"/>
<path d="M1985 1001 l0 -546 426 -3 426 -2 0 95 c0 79 -2 97 -16 103 -9 4
-135 7 -281 6 l-265 -1 0 121 c0 67 3 126 7 131 4 7 99 10 262 10 l256 0 0
102 0 102 -217 0 c-120 0 -238 0 -263 1 l-46 0 1 113 0 112 272 0 c178 0 274
3 276 10 3 9 2 135 -2 176 -1 14 -43 16 -419 16 l-417 0 0 -546z"/>
<path d="M3374 1493 c-13 -29 -24 -56 -24 -58 0 -3 -16 -39 -35 -81 -19 -41
-35 -78 -35 -80 0 -3 -9 -24 -19 -47 -10 -23 -31 -71 -46 -107 -14 -36 -32
-78 -40 -95 -7 -16 -52 -120 -98 -230 -47 -110 -95 -222 -107 -250 -12 -27
-26 -60 -31 -72 l-9 -23 154 0 153 0 44 107 44 108 253 0 c160 0 256 -3 261
-10 5 -5 28 -54 51 -107 l43 -98 153 0 c85 0 154 3 154 6 0 3 -27 63 -59 132
-33 70 -75 161 -94 202 -37 81 -147 316 -219 470 -24 52 -62 133 -83 180 -21
47 -42 90 -47 96 -5 7 -66 11 -174 11 l-166 0 -24 -54z m286 -418 c47 -108 87
-200 88 -205 2 -6 -62 -10 -172 -10 l-177 0 16 30 c8 16 15 31 15 32 -2 4 11
38 36 96 13 28 20 52 17 52 -3 0 -1 6 4 13 5 6 25 51 44 99 19 49 36 88 39 88
3 0 43 -88 90 -195z"/>
<path d="M4379 1546 c-1 -1 -2 -247 -3 -549 l-1 -548 145 3 145 3 0 333 c0
182 2 332 5 332 2 0 22 -19 43 -42 22 -24 74 -81 116 -128 43 -47 92 -102 110
-122 51 -58 65 -53 172 65 51 56 114 124 139 150 24 26 48 54 53 62 4 8 12 15
17 15 4 0 8 -150 8 -332 l-1 -333 145 -3 146 -3 -2 548 -1 548 -127 2 -126 1
-50 -56 c-28 -32 -66 -73 -84 -93 -18 -20 -67 -74 -108 -119 -135 -148 -128
-142 -137 -126 -4 8 -28 36 -53 63 -25 26 -85 93 -135 148 -49 55 -108 118
-130 141 l-40 41 -123 0 c-67 0 -123 0 -123 -1z"/>
</g>
</svg>
